
<!-- Generator: visioncortex VTracer 0.6.4 -->
<svg version="1.1" xmlns="http://www.w3.org/2000/svg" viewBox="0 0 572 186" preserveAspectRatio="xMidYMid meet">
<path d="M0 0 C1.02 -0.005 1.02 -0.005 2.06 -0.011 C4.312 -0.019 6.564 -0.014 8.816 -0.007 C10.378 -0.008 11.94 -0.01 13.502 -0.013 C16.777 -0.016 20.052 -0.011 23.327 -0.002 C27.531 0.009 31.734 0.003 35.938 -0.009 C39.163 -0.016 42.389 -0.014 45.614 -0.009 C47.164 -0.008 48.715 -0.009 50.265 -0.014 C52.429 -0.019 54.593 -0.011 56.758 0 C58.607 0.002 58.607 0.002 60.494 0.005 C63.379 0.259 63.379 0.259 65.379 2.259 C65.622 4.581 65.622 4.581 65.609 7.45 C65.607 8.477 65.606 9.504 65.604 10.562 C65.591 11.637 65.579 12.713 65.566 13.821 C65.565 15.441 65.565 15.441 65.564 17.093 C65.519 25.119 65.519 25.119 64.379 26.259 C61.805 26.36 59.265 26.397 56.691 26.384 C55.983 26.388 55.275 26.392 54.545 26.396 C53.847 26.394 53.149 26.393 52.43 26.392 C51.797 26.39 51.165 26.389 50.513 26.388 C47.761 26.221 45.094 25.725 42.379 25.259 C42.381 26.121 42.383 26.983 42.386 27.872 C42.406 35.98 42.421 44.088 42.431 52.196 C42.436 56.365 42.443 60.534 42.454 64.703 C42.465 68.723 42.471 72.743 42.474 76.763 C42.476 78.3 42.479 79.837 42.485 81.375 C42.492 83.52 42.493 85.666 42.492 87.811 C42.495 89.035 42.497 90.258 42.499 91.519 C42.379 94.259 42.379 94.259 41.379 95.259 C39.464 95.359 37.546 95.39 35.629 95.392 C34.464 95.393 33.298 95.394 32.098 95.396 C30.87 95.392 29.643 95.388 28.379 95.384 C26.538 95.39 26.538 95.39 24.66 95.396 C23.495 95.394 22.33 95.393 21.129 95.392 C20.051 95.39 18.974 95.389 17.863 95.388 C15.379 95.259 15.379 95.259 14.379 94.259 C14.285 92.111 14.261 89.961 14.265 87.811 C14.265 87.138 14.265 86.465 14.265 85.771 C14.266 83.537 14.273 81.302 14.281 79.067 C14.283 77.522 14.285 75.976 14.286 74.431 C14.289 70.355 14.299 66.28 14.31 62.204 C14.32 58.049 14.325 53.893 14.33 49.737 C14.341 41.578 14.358 33.418 14.379 25.259 C13.762 25.421 13.145 25.583 12.51 25.751 C10.292 26.28 8.363 26.388 6.086 26.392 C5.291 26.393 4.497 26.394 3.678 26.396 C2.857 26.392 2.037 26.388 1.191 26.384 C-0.057 26.39 -0.057 26.39 -1.33 26.396 C-7.494 26.385 -7.494 26.385 -8.621 25.259 C-8.873 21.453 -8.806 17.635 -8.809 13.821 C-8.821 12.746 -8.833 11.67 -8.846 10.562 C-8.848 9.535 -8.85 8.508 -8.852 7.45 C-8.856 6.503 -8.86 5.557 -8.864 4.581 C-8.304 -0.777 -4.43 0.006 0 0 Z " fill="#2D4373" transform="translate(215.62109375,40.7412109375)"/>
<path d="M0 0 C5.911 5.139 9.448 12.216 10.036 20.008 C10.102 22.782 10.107 25.549 10.086 28.324 C10.085 29.333 10.085 30.342 10.085 31.381 C10.082 33.501 10.074 35.62 10.061 37.74 C10.043 40.998 10.041 44.257 10.041 47.516 C10.036 49.577 10.03 51.638 10.023 53.699 C10.022 54.678 10.021 55.657 10.02 56.666 C10.014 57.564 10.007 58.463 10.001 59.388 C9.995 60.579 9.995 60.579 9.989 61.794 C9.855 63.613 9.855 63.613 8.855 64.613 C7.513 64.7 6.166 64.72 4.82 64.711 C4.011 64.708 3.203 64.704 2.369 64.701 C1.519 64.693 0.669 64.684 -0.207 64.676 C-1.061 64.671 -1.915 64.667 -2.795 64.662 C-4.911 64.65 -7.028 64.632 -9.145 64.613 C-10.745 61.413 -9.176 58.891 -8.145 55.613 C-8.508 56.084 -8.872 56.554 -9.246 57.039 C-13.566 62.389 -17.398 65.328 -24.332 66.426 C-32.758 67.108 -40.148 65.277 -47.145 60.613 C-47.145 59.953 -47.145 59.293 -47.145 58.613 C-47.805 58.613 -48.465 58.613 -49.145 58.613 C-53.696 51.501 -54.136 44.95 -53.145 36.613 C-50.499 30.712 -46.156 27.857 -40.27 25.426 C-32.575 23.425 -25.047 23.495 -17.145 23.613 C-17.475 21.963 -17.805 20.313 -18.145 18.613 C-21.654 17.716 -23.492 17.31 -26.832 18.863 C-29.367 20.698 -29.367 20.698 -32.145 23.613 C-38.085 19.983 -44.025 16.353 -50.145 12.613 C-48.728 6.949 -45.797 3.483 -41.027 0.121 C-28.632 -7.128 -12.268 -8.301 0 0 Z M-26.145 34.613 C-26.561 38.113 -26.561 38.113 -26.145 41.613 C-23.296 43.98 -23.296 43.98 -19.957 43.238 C-19.029 43.032 -18.101 42.826 -17.145 42.613 C-15.945 37.331 -15.945 37.331 -18.145 32.613 C-22.65 32.061 -22.65 32.061 -26.145 34.613 Z M-5.145 45.613 C-4.145 47.613 -4.145 47.613 -4.145 47.613 Z M-6.145 48.613 C-5.145 51.613 -5.145 51.613 -5.145 51.613 Z " fill="#2B4170" transform="translate(526.14453125,71.38671875)"/>
<path d="M0 0 C0 7.92 0 15.84 0 24 C-1.815 23.051 -3.63 22.102 -5.5 21.125 C-13.191 17.53 -20.602 16.625 -29 16 C-28.67 16.66 -28.34 17.32 -28 18 C-25.688 18.656 -23.404 19.22 -21.062 19.75 C-12.922 21.767 -5.955 24.469 -0.438 31.062 C2.8 37.678 3.246 45.704 1.199 52.762 C-1.217 58.317 -3.977 61.52 -9.477 64.105 C-22.83 68.839 -35.511 66.827 -49 64 C-49.66 63.67 -50.32 63.34 -51 63 C-51 54.75 -51 46.5 -51 38 C-46 40 -46 40 -43.973 40.816 C-36.242 43.836 -29.246 44.132 -21 44 C-23.775 41.225 -26.913 40.991 -30.625 40.188 C-38.194 38.416 -43.672 36.153 -49.375 30.75 C-52.768 25.008 -53.588 18.766 -52.602 12.203 C-51.166 6.944 -48.383 3.163 -44.25 -0.312 C-29.644 -7.897 -14.895 -5.958 0 0 Z " fill="#2B4170" transform="translate(418,71)"/>
<path d="M0 0 C1.12 -0.001 2.24 -0.003 3.395 -0.004 C4.574 -0 5.754 0.004 6.969 0.008 C8.738 0.002 8.738 0.002 10.543 -0.004 C12.223 -0.002 12.223 -0.002 13.938 0 C14.973 0.001 16.009 0.002 17.076 0.003 C19.469 0.133 19.469 0.133 20.469 1.133 C20.612 4.802 20.511 8.46 20.469 12.133 C24.099 12.133 27.729 12.133 31.469 12.133 C31.665 14.195 31.85 16.257 32.031 18.32 C32.188 20.043 32.188 20.043 32.348 21.801 C32.469 25.133 32.469 25.133 31.469 30.133 C27.839 30.133 24.209 30.133 20.469 30.133 C20.529 33.551 20.616 36.966 20.719 40.383 C20.733 41.351 20.747 42.319 20.762 43.316 C20.905 48.828 20.905 48.828 23.141 53.742 C25.893 55.578 25.893 55.578 31.469 56.133 C31.469 64.053 31.469 71.973 31.469 80.133 C20.596 80.563 11.355 80.293 2.531 73.32 C-4.975 66.066 -6.3 57.755 -6.608 47.585 C-6.693 41.766 -6.636 35.951 -6.531 30.133 C-8.511 30.133 -10.491 30.133 -12.531 30.133 C-12.531 24.193 -12.531 18.253 -12.531 12.133 C-10.551 12.133 -8.571 12.133 -6.531 12.133 C-6.543 11.35 -6.554 10.568 -6.566 9.762 C-6.575 8.75 -6.584 7.738 -6.594 6.695 C-6.605 5.686 -6.617 4.677 -6.629 3.637 C-6.449 -0.985 -4.055 0.004 0 0 Z " fill="#2C4272" transform="translate(436.53125,55.8671875)"/>
<path d="M0 0 C0 7.59 0 15.18 0 23 C-4.932 23.293 -4.932 23.293 -9.863 23.586 C-13.157 23.786 -13.157 23.786 -16 26 C-16.474 27.97 -16.474 27.97 -16.432 30.266 C-16.452 31.147 -16.472 32.028 -16.492 32.935 C-16.502 34.363 -16.502 34.363 -16.512 35.82 C-16.53 36.794 -16.548 37.768 -16.566 38.771 C-16.62 41.889 -16.654 45.007 -16.688 48.125 C-16.721 50.236 -16.755 52.346 -16.791 54.457 C-16.879 59.638 -16.939 64.818 -17 70 C-25.58 70 -34.16 70 -43 70 C-43 47.56 -43 25.12 -43 2 C-36.73 2 -30.46 2 -24 2 C-23 4 -23 4 -23.938 7.125 C-24.463 8.548 -24.463 8.548 -25 10 C-24.599 9.529 -24.198 9.059 -23.785 8.574 C-16.488 0.582 -10.794 0 0 0 Z M-28 15 C-27 17 -27 17 -27 17 Z " fill="#2B4171" transform="translate(327,66)"/>
<path d="M0 0 C8.25 0 16.5 0 25 0 C26 1 26 1 26.12 3.664 C26.117 5.446 26.117 5.446 26.114 7.264 C26.114 7.918 26.114 8.571 26.114 9.245 C26.113 11.414 26.105 13.584 26.098 15.754 C26.096 17.255 26.094 18.755 26.093 20.256 C26.09 24.213 26.08 28.17 26.069 32.127 C26.058 36.162 26.054 40.197 26.049 44.232 C26.038 52.155 26.02 60.077 26 68 C17.42 68 8.84 68 0 68 C0 45.56 0 23.12 0 0 Z " fill="#2A4172" transform="translate(332,68)"/>
<path d="M0 0 C3.701 3.419 5.376 6.341 5.805 11.48 C5.601 15.221 4.13 17.86 1.691 20.562 C-5.66 26.562 -5.66 26.562 -10.309 26.562 C-10.239 25.789 -10.169 25.016 -10.098 24.219 C-9.759 17.708 -9.921 13.237 -14.352 8.246 C-22.547 1.196 -33.409 -0.927 -43.996 -0.625 C-54.457 0.223 -64.933 2.66 -72.309 10.562 C-74.921 15.818 -75.679 20.757 -75.309 26.562 C-80.883 25.007 -84.423 22.838 -88.121 18.375 C-89.841 14.3 -90.159 10.911 -89.309 6.562 C-86.394 -0.201 -80.944 -3.235 -74.469 -6.188 C-51.887 -15.12 -19.861 -15.259 0 0 Z " fill="#314471" transform="translate(152.30859375,108.4375)"/>
<path d="M0 0 C4.091 3.425 5.387 5.919 6.562 11.125 C6.95 15.505 5.925 18.425 3.688 22.25 C0.615 25.462 -1.455 27.016 -5.75 28.188 C-10.938 28.279 -14.681 27.288 -19.062 24.5 C-22.661 20.901 -24.145 17.814 -24.688 12.75 C-24.167 7.889 -22.543 4.778 -19.5 1 C-13.322 -3.943 -6.688 -3.533 0 0 Z " fill="#314573" transform="translate(151.3125,40.75)"/>
<path d="M0 0 C4.286 2.795 7.224 5.923 8.875 10.875 C9.377 17 8.974 20 4.875 24.875 C1.092 28.658 -1.767 29.786 -7.125 29.875 C-11.869 28.968 -15.22 27.803 -18.625 24.312 C-21.746 19.241 -21.84 14.765 -21.125 8.875 C-19.396 4.724 -16.942 2.426 -13.25 -0.062 C-8.408 -1.709 -4.818 -1.735 0 0 Z " fill="#2F4472" transform="translate(84.125,39.125)"/>
<path d="M0 0 C3.539 3.707 4.37 6.063 5.125 11.062 C4.434 16.156 2.258 19.184 -1.375 22.75 C-5.401 24.938 -8.971 25.074 -13.414 24.359 C-17.521 23.083 -20.174 20.334 -22.75 16.938 C-24.221 11.788 -24.082 8.089 -21.625 3.438 C-15.889 -3.414 -7.626 -5.944 0 0 Z " fill="#2E426F" transform="translate(354.375,39.25)"/>
<path d="M0 0 C6.157 -0.031 6.157 -0.031 12.438 -0.062 C14.382 -0.076 14.382 -0.076 16.365 -0.09 C17.884 -0.094 17.884 -0.094 19.434 -0.098 C20.476 -0.103 21.518 -0.108 22.592 -0.114 C25 0 25 0 26 1 C26.094 3.086 26.117 5.176 26.114 7.264 C26.114 7.918 26.114 8.571 26.114 9.245 C26.113 11.414 26.105 13.584 26.098 15.754 C26.096 17.255 26.094 18.755 26.093 20.256 C26.09 24.213 26.08 28.17 26.069 32.127 C26.058 36.162 26.054 40.197 26.049 44.232 C26.038 52.155 26.02 60.077 26 68 C17.42 68 8.84 68 0 68 C0 60.74 0 53.48 0 46 C0.33 46 0.66 46 1 46 C1.33 52.27 1.66 58.54 2 65 C9.26 65.33 16.52 65.66 24 66 C24 44.88 24 23.76 24 2 C16.41 2 8.82 2 1 2 C1 12.56 1 23.12 1 34 C0.67 34 0.34 34 0 34 C0 22.78 0 11.56 0 0 Z " fill="#2C3959" transform="translate(332,68)"/>
<path d="M0 0 C0.33 0 0.66 0 1 0 C1 22.11 1 44.22 1 67 C8.92 67 16.84 67 25 67 C25.33 65.68 25.66 64.36 26 63 C26.382 64.656 26.714 66.325 27 68 C25.226 69.774 22.65 69.13 20.25 69.133 C19.085 69.134 17.919 69.135 16.719 69.137 C15.492 69.133 14.264 69.129 13 69.125 C11.159 69.131 11.159 69.131 9.281 69.137 C8.116 69.135 6.951 69.134 5.75 69.133 C4.672 69.132 3.595 69.131 2.484 69.129 C0 69 0 69 -1 68 C-1.102 65.033 -1.139 62.089 -1.133 59.121 C-1.134 58.21 -1.135 57.298 -1.137 56.359 C-1.139 53.385 -1.132 50.411 -1.125 47.438 C-1.124 46.437 -1.123 45.436 -1.122 44.405 C-1.107 29.581 -0.874 14.802 0 0 Z " fill="#2B3859" transform="translate(231,67)"/>
<path d="M0 0 C6.27 0 12.54 0 19 0 C19.33 0.66 19.66 1.32 20 2 C19.066 4.031 18.068 6.035 17 8 C16 4.125 16 4.125 16 3 C11.38 3 6.76 3 2 3 C1.67 21.81 1.34 40.62 1 60 C0.67 60 0.34 60 0 60 C0 40.2 0 20.4 0 0 Z " fill="#2E3B5B" transform="translate(284,68)"/>
<path d="M0 0 C1 3 1 3 -0.188 6.062 C-1.992 8.987 -2.829 9.906 -6 11 C-5.711 10.443 -5.423 9.886 -5.125 9.312 C-3.948 6.98 -3.948 6.98 -3 4.375 C-2 2 -2 2 0 0 Z M2 2 C3.417 6.251 2.193 8.719 1 13 C5.95 13.33 10.9 13.66 16 14 C16 14.66 16 15.32 16 16 C10.06 16 4.12 16 -2 16 C-2.33 15.34 -2.66 14.68 -3 14 C-2.268 11.928 -1.441 9.889 -0.562 7.875 C-0.089 6.779 0.384 5.684 0.871 4.555 C1.244 3.712 1.616 2.869 2 2 Z M-8 12 C-7.67 12.66 -7.34 13.32 -7 14 C-8.65 14.33 -10.3 14.66 -12 15 C-10.68 14.01 -9.36 13.02 -8 12 Z M-15 15 C-12 16 -12 16 -12 16 Z " fill="#273455" transform="translate(519,120)"/>
<path d="M0 0 C-3.63 0 -7.26 0 -11 0 C-10.94 3.419 -10.853 6.833 -10.75 10.25 C-10.736 11.218 -10.722 12.186 -10.707 13.184 C-10.587 18.757 -10.587 18.757 -8.156 23.625 C-5.462 25.343 -3.159 25.713 0 26 C0 28.31 0 30.62 0 33 C-0.66 32.34 -1.32 31.68 -2 31 C-2 30.01 -2 29.02 -2 28 C-3.093 27.732 -4.186 27.464 -5.312 27.188 C-10.094 25.648 -10.094 25.648 -12 23 C-12.953 20.142 -13.129 18.334 -13.133 15.367 C-13.134 14.479 -13.135 13.591 -13.137 12.676 C-13.133 11.752 -13.129 10.827 -13.125 9.875 C-13.129 8.943 -13.133 8.011 -13.137 7.051 C-13.135 6.165 -13.134 5.28 -13.133 4.367 C-13.132 3.554 -13.131 2.74 -13.129 1.902 C-13 0 -13 0 -12 -1 C-10.363 -1.286 -8.714 -1.505 -7.062 -1.688 C-6.167 -1.794 -5.271 -1.901 -4.348 -2.012 C-2 -2 -2 -2 0 0 Z " fill="#2A3758" transform="translate(468,86)"/>
<path d="M0 0 C0.33 0 0.66 0 1 0 C1 2.64 1 5.28 1 8 C-7.58 8 -16.16 8 -25 8 C-25 6.68 -25 5.36 -25 4 C-24.34 4 -23.68 4 -23 4 C-23 4.66 -23 5.32 -23 6 C-15.74 6 -8.48 6 -1 6 C-1 4.35 -1 2.7 -1 1 C-0.67 0.67 -0.34 0.34 0 0 Z " fill="#273455" transform="translate(309,128)"/>
<path d="M0 0 C1.563 0.008 1.563 0.008 3.158 0.016 C4.283 0.019 5.407 0.022 6.566 0.026 C7.75 0.034 8.934 0.042 10.154 0.051 C11.342 0.056 12.53 0.06 13.754 0.065 C16.7 0.077 19.646 0.094 22.592 0.114 C22.592 4.074 22.592 8.034 22.592 12.114 C22.262 12.114 21.932 12.114 21.592 12.114 C21.592 8.814 21.592 5.514 21.592 2.114 C14.002 2.114 6.412 2.114 -1.408 2.114 C-1.738 3.434 -2.068 4.754 -2.408 6.114 C-2.791 4.457 -3.122 2.789 -3.408 1.114 C-2.408 0.114 -2.408 0.114 0 0 Z " fill="#2B3859" transform="translate(433.408447265625,55.886474609375)"/>
<path d="M0 0 C0.66 0.33 1.32 0.66 2 1 C1.67 2.65 1.34 4.3 1 6 C-7.58 6 -16.16 6 -25 6 C-24.67 5.01 -24.34 4.02 -24 3 C-16.08 3.33 -8.16 3.66 0 4 C0 2.68 0 1.36 0 0 Z " fill="#273455" transform="translate(256,130)"/>
<path d="M0 0 C4.035 1.59 8.018 3.282 12 5 C10.68 5.99 9.36 6.98 8 8 C7.34 7.01 6.68 6.02 6 5 C4.02 5.33 2.04 5.66 0 6 C0 4.02 0 2.04 0 0 Z M12 6 C18.93 6.495 18.93 6.495 26 7 C25.67 7.66 25.34 8.32 25 9 C20.71 8.34 16.42 7.68 12 7 C12 6.67 12 6.34 12 6 Z " fill="#2A395C" transform="translate(367,109)"/>
<path d="M0 0 C6.27 0 12.54 0 19 0 C19.33 0.66 19.66 1.32 20 2 C19.066 4.031 18.068 6.035 17 8 C16 4.125 16 4.125 16 3 C10.72 3 5.44 3 0 3 C0 2.01 0 1.02 0 0 Z " fill="#2C395B" transform="translate(284,68)"/>
<path d="M0 0 C9.456 -0.475 17.831 0.896 27 3 C27 3.33 27 3.66 27 4 C19.952 4.191 13.747 4.294 7 2 C4.672 1.63 2.34 1.286 0 1 C0 0.67 0 0.34 0 0 Z M27 4 C29.475 4.495 29.475 4.495 32 5 C31.34 5.66 30.68 6.32 30 7 C29.01 6.01 28.02 5.02 27 4 Z " fill="#565F75" transform="translate(109,97)"/>
<path d="M0 0 C0.866 0.371 0.866 0.371 1.75 0.75 C0.925 1.101 0.1 1.451 -0.75 1.812 C-1.575 2.452 -2.4 3.091 -3.25 3.75 C-3.667 7.376 -3.667 7.376 -3.25 10.75 C-2.322 10.894 -1.394 11.039 -0.438 11.188 C2.75 11.75 2.75 11.75 5.75 12.75 C4.161 14.339 2.502 13.92 0.312 13.938 C-0.892 13.959 -0.892 13.959 -2.121 13.98 C-4.25 13.75 -4.25 13.75 -6.25 11.75 C-6.928 4.743 -6.928 4.743 -4.5 1.188 C-2.25 -0.25 -2.25 -0.25 0 0 Z " fill="#263356" transform="translate(504.25,102.25)"/>
<path d="M0 0 C5.94 0.33 11.88 0.66 18 1 C18 1.66 18 2.32 18 3 C12.06 3 6.12 3 0 3 C0 2.01 0 1.02 0 0 Z " fill="#2B3753" transform="translate(517,133)"/>
<path d="M0 0 C3.34 2.909 4.399 4.646 5 9 C5.065 10.937 5.086 12.875 5.062 14.812 C5.053 15.788 5.044 16.764 5.035 17.77 C5.024 18.506 5.012 19.242 5 20 C4.34 20 3.68 20 3 20 C2.927 18.714 2.927 18.714 2.852 17.402 C2.455 11.332 2.008 5.756 0 0 Z " fill="#2C3758" transform="translate(415,101)"/>
<path d="M0 0 C0.33 0 0.66 0 1 0 C0.882 6.835 0.882 6.835 -1.414 9.867 C-4.463 12.675 -6.244 13.917 -10.438 14.375 C-11.283 14.251 -12.129 14.127 -13 14 C-11 12 -11 12 -8.125 10.688 C-4.087 8.507 -1.68 6.098 -0.25 1.688 C-0.168 1.131 -0.085 0.574 0 0 Z " fill="#3A4465" transform="translate(91,54)"/>
<path d="M0 0 C1.756 0.027 1.756 0.027 3.547 0.055 C4.885 0.089 4.885 0.089 6.25 0.125 C6.25 0.455 6.25 0.785 6.25 1.125 C5.328 1.198 5.328 1.198 4.387 1.273 C3.578 1.348 2.77 1.423 1.938 1.5 C0.737 1.604 0.737 1.604 -0.488 1.711 C-3.022 2.021 -3.022 2.021 -5.75 4.125 C-5.75 3.465 -5.75 2.805 -5.75 2.125 C-7.4 2.785 -9.05 3.445 -10.75 4.125 C-10.75 3.465 -10.75 2.805 -10.75 2.125 C-7.155 -0.135 -4.184 -0.084 0 0 Z M-12.75 4.125 C-12.09 4.455 -11.43 4.785 -10.75 5.125 C-12.07 6.115 -13.39 7.105 -14.75 8.125 C-14.09 6.805 -13.43 5.485 -12.75 4.125 Z " fill="#222F52" transform="translate(319.75,66.875)"/>
<path d="M0 0 C-3.512 2.408 -5.727 3.366 -10 3 C-10 3.66 -10 4.32 -10 5 C-11.98 5.33 -13.96 5.66 -16 6 C-11.587 2.001 -6.01 -2.003 0 0 Z " fill="#495571" transform="translate(87,101)"/>
<path d="M0 0 C2 1 2 1 2 1 Z M-3 1 C-2.01 1.33 -1.02 1.66 0 2 C-0.619 2.701 -1.237 3.403 -1.875 4.125 C-4.043 7.058 -5.027 9.512 -6 13 C-7.125 11.375 -7.125 11.375 -8 9 C-7.076 4.802 -6.64 3.427 -3 1 Z " fill="#424E6B" transform="translate(83,114)"/>
<path d="M0 0 C0.66 0.33 1.32 0.66 2 1 C2 3.97 2 6.94 2 10 C1.01 9.67 0.02 9.34 -1 9 C-1 5.727 -0.701 3.153 0 0 Z M-6 4 C-3.525 4.495 -3.525 4.495 -1 5 C-1 5.66 -1 6.32 -1 7 C-2.938 6.625 -2.938 6.625 -5 6 C-5.33 5.34 -5.66 4.68 -6 4 Z " fill="#2A395D" transform="translate(416,85)"/>
<path d="M0 0 C0.33 0 0.66 0 1 0 C1.049 0.603 1.098 1.207 1.148 1.828 C1.223 2.627 1.298 3.427 1.375 4.25 C1.445 5.039 1.514 5.828 1.586 6.641 C2.021 9.121 2.684 10.86 4 13 C4.66 13.33 5.32 13.66 6 14 C5.01 14.66 4.02 15.32 3 16 C-1.017 11.146 -0.281 5.95 0 0 Z " fill="#212F54" transform="translate(473,111)"/>
<path d="M0 0 C0 0.99 0 1.98 0 3 C-0.33 3.33 -0.66 3.66 -1 4 C-1.231 5.347 -1.412 6.704 -1.562 8.062 C-1.779 10.012 -1.779 10.012 -2 12 C-2.66 12 -3.32 12 -4 12 C-4.492 4.615 -4.492 4.615 -2 1.5 C-1.34 1.005 -0.68 0.51 0 0 Z " fill="#354569" transform="translate(67,44)"/>
<path d="M0 0 C0.99 0.33 1.98 0.66 3 1 C-0.75 4 -0.75 4 -3 4 C-3.66 5.98 -4.32 7.96 -5 10 C-5.66 9.67 -6.32 9.34 -7 9 C-5.661 4.617 -3.878 2.459 0 0 Z " fill="#283454" transform="translate(481,99)"/>
<path d="M0 0 C0.33 0 0.66 0 1 0 C1.438 3.188 1.438 3.188 1 7 C-1.085 9.112 -3.412 10.567 -6 12 C-5.67 10.35 -5.34 8.7 -5 7 C-3.35 6.67 -1.7 6.34 0 6 C0 4.02 0 2.04 0 0 Z " fill="#273860" transform="translate(431,63)"/>
<path d="M0 0 C1.173 0.951 2.338 1.911 3.5 2.875 C4.15 3.409 4.799 3.942 5.469 4.492 C5.974 4.99 6.479 5.487 7 6 C7 6.66 7 7.32 7 8 C3.347 6.75 2.219 6.329 0 3 C0 2.01 0 1.02 0 0 Z M7 8 C7.99 8.33 8.98 8.66 10 9 C9.01 9 8.02 9 7 9 C7 8.67 7 8.34 7 8 Z " fill="#37425E" transform="translate(129,58)"/>
<path d="M0 0 C5.28 0 10.56 0 16 0 C16 0.66 16 1.32 16 2 C15.01 2.33 14.02 2.66 13 3 C12.34 2.67 11.68 2.34 11 2 C9.129 1.772 7.253 1.59 5.375 1.438 C4.372 1.354 3.369 1.27 2.336 1.184 C1.565 1.123 0.794 1.062 0 1 C0 0.67 0 0.34 0 0 Z " fill="#222F51" transform="translate(501,67)"/>
<path d="M0 0 C1.459 0.477 2.917 0.957 4.375 1.438 C5.187 1.704 5.999 1.971 6.836 2.246 C9 3 9 3 11 4 C11 4.66 11 5.32 11 6 C7.084 5.217 3.636 3.608 0 2 C0 1.34 0 0.68 0 0 Z " fill="#313D5B" transform="translate(126,108)"/>
<path d="M0 0 C1.102 4.408 0.587 5.892 -1 10 C-1.66 9.67 -2.32 9.34 -3 9 C-2.01 6.03 -1.02 3.06 0 0 Z " fill="#1F2C4F" transform="translate(520,124)"/>
<path d="M0 0 C1.32 0.33 2.64 0.66 4 1 C3.01 2.98 2.02 4.96 1 7 C0.313 4.509 0 2.621 0 0 Z " fill="#263353" transform="translate(300,69)"/>
<path d="M0 0 C-0.33 0.66 -0.66 1.32 -1 2 C-4.438 2.75 -4.438 2.75 -8 3 C-8.66 2.34 -9.32 1.68 -10 1 C-6.62 -0.04 -3.522 -0.08 0 0 Z " fill="#5F6986" transform="translate(150,66)"/>
<path d="M0 0 C0.66 0 1.32 0 2 0 C0.25 5.75 0.25 5.75 -2 8 C-1.125 1.125 -1.125 1.125 0 0 Z " fill="#293555" transform="translate(334,41)"/>
<path d="M0 0 C1.875 0.25 1.875 0.25 4 1 C5.25 3.062 5.25 3.062 6 5 C4.02 4.01 2.04 3.02 0 2 C0 1.34 0 0.68 0 0 Z " fill="#444D6A" transform="translate(149,41)"/>
<path d="M0 0 C1.875 0.25 1.875 0.25 4 1 C5.25 3.062 5.25 3.062 6 5 C3.562 4.188 3.562 4.188 1 3 C0.67 2.01 0.34 1.02 0 0 Z " fill="#44516D" transform="translate(351,39)"/>
<path d="M0 0 C0.99 0.495 0.99 0.495 2 1 C1.01 1.495 1.01 1.495 0 2 C0 1.34 0 0.68 0 0 Z M-1 2 C-0.01 2 0.98 2 2 2 C2 3.32 2 4.64 2 6 C1.01 5.67 0.02 5.34 -1 5 C-1 4.01 -1 3.02 -1 2 Z " fill="#2D3D63" transform="translate(74,122)"/>
<path d="M0 0 C2 1.812 2 1.812 4 4 C4 4.99 4 5.98 4 7 C3.34 7 2.68 7 2 7 C1.34 4.69 0.68 2.38 0 0 Z " fill="#2B3858" transform="translate(415,101)"/>
<path d="M0 0 C-0.33 0.99 -0.66 1.98 -1 3 C-2.98 3 -4.96 3 -7 3 C-4.746 0.746 -3.208 0 0 0 Z " fill="#48536D" transform="translate(85,65)"/>
<path d="M0 0 C0 3.517 -0.824 4.371 -3 7 C-3.188 4.625 -3.188 4.625 -3 2 C-2.01 1.34 -1.02 0.68 0 0 Z " fill="#2B3859" transform="translate(67,44)"/>
<path d="M0 0 C0.99 0.33 1.98 0.66 3 1 C2.34 2.65 1.68 4.3 1 6 C0.67 6 0.34 6 0 6 C0 4.02 0 2.04 0 0 Z " fill="#1F2D50" transform="translate(367,109)"/>
<path d="M0 0 C0.33 0.99 0.66 1.98 1 3 C0.01 3 -0.98 3 -2 3 C-2 2.34 -2 1.68 -2 1 C-1.34 0.67 -0.68 0.34 0 0 Z " fill="#273456" transform="translate(519,130)"/>
<path d="M0 0 C1.32 0.33 2.64 0.66 4 1 C4 1.66 4 2.32 4 3 C2.68 2.67 1.36 2.34 0 2 C0 1.34 0 0.68 0 0 Z " fill="#2D3A5A" transform="translate(133,111)"/>
<path d="M0 0 C1.98 0.495 1.98 0.495 4 1 C2.02 1.99 2.02 1.99 0 3 C0 2.01 0 1.02 0 0 Z " fill="#233153" transform="translate(486,97)"/>
<path d="M0 0 C0.66 0.33 1.32 0.66 2 1 C2 1.99 2 2.98 2 4 C1.01 3.67 0.02 3.34 -1 3 C-0.67 2.01 -0.34 1.02 0 0 Z " fill="#2C3D66" transform="translate(428,81)"/>
<path d="M0 0 C2.475 0.495 2.475 0.495 5 1 C3.515 1.99 3.515 1.99 2 3 C1.34 2.01 0.68 1.02 0 0 Z " fill="#222F51" transform="translate(390,90)"/>
<path d="M0 0 C0.99 0.33 1.98 0.66 3 1 C2.01 2.485 2.01 2.485 1 4 C0.67 2.68 0.34 1.36 0 0 Z " fill="#6A738A" transform="translate(64,59)"/>
<path d="M0 0 C1.32 0.33 2.64 0.66 4 1 C3.67 1.66 3.34 2.32 3 3 C2.34 3 1.68 3 1 3 C0.67 2.01 0.34 1.02 0 0 Z " fill="#35415F" transform="translate(84,41)"/>
<path d="M0 0 C1.98 0.99 1.98 0.99 4 2 C3.01 2.33 2.02 2.66 1 3 C0.67 2.01 0.34 1.02 0 0 Z " fill="#464E6E" transform="translate(147,106)"/>
<path d="M0 0 C0.99 0.33 1.98 0.66 3 1 C2.34 1.66 1.68 2.32 1 3 C0.67 2.01 0.34 1.02 0 0 Z " fill="#253355" transform="translate(473,120)"/>
<path d="M0 0 C0.66 0.66 1.32 1.32 2 2 C1.01 2 0.02 2 -1 2 C-0.67 1.34 -0.34 0.68 0 0 Z " fill="#2D3C61" transform="translate(304,74)"/>
</svg>